#Comment line ignore any data following # character 
#Hierarchical Translation and Rotation (.htr) file 
[Header]	
#Header keywords are followed by a single value 
FileType HTR		#Single word string
DataType HTRS		#Translation followed by rotation and scale data
FileVersion 1		#integer
NumSegments 84		#integer
NumFrames 2		#integer
DataFrameRate 30		#integer, data frame rate in this file
EulerRotationOrder ZYX
CalibrationUnits mm
RotationUnits Degrees
GlobalAxisofGravity Y
BoneLengthAxis Y
ScaleFactor 1.00
[SegmentNames&Hierarchy]
#CHILD	PARENT
MASTER GLOBAL
root MASTER
chest root
L_mid_tent01 root
R_mid_tent01 root
spine01 root
Bip01_Neck chest
L_humerus chest
R_humerus chest
weapon_bone chest
Bip01_Head Bip01_Neck
eye_left_bone Bip01_Head
eye_right_bone Bip01_Head
L_forearm L_humerus
L_front_hand L_forearm
L_weapon_bone L_forearm
L_front_hand01_01 L_front_hand
L_front_hand02_01 L_front_hand
L_front_hand03_01 L_front_hand
L_front_hand01_02 L_front_hand01_01
L_front_hand02_02 L_front_hand02_01
L_front_hand03_02 L_front_hand03_01
R_forearm R_humerus
R_front_hand R_forearm
R_weapon_bone R_forearm
R_front_hand01_01 R_front_hand
R_front_hand02_01 R_front_hand
R_front_hand03_01 R_front_hand
R_front_hand01_02 R_front_hand01_01
R_front_hand02_02 R_front_hand02_01
R_front_hand03_02 R_front_hand03_01
null_rope01_connect L_mid_tent01
Rope1_Seg01 null_rope01_connect
Rope1_Seg02 Rope1_Seg01
Rope1_Seg03 Rope1_Seg02
Rope1_Seg04 Rope1_Seg03
Rope1_Seg05 Rope1_Seg04
Rope1_Seg06 Rope1_Seg05
Rope1_Seg07 Rope1_Seg06
Rope1_Seg09 Rope1_Seg07
L_mid_hand01 Rope1_Seg09
L_mid_hand02 Rope1_Seg09
L_mid_hand03 Rope1_Seg09
null_rope02_connect R_mid_tent01
Rope2_Seg01 null_rope02_connect
Rope2_Seg02 Rope2_Seg01
Rope2_Seg03 Rope2_Seg02
Rope2_Seg04 Rope2_Seg03
Rope2_Seg05 Rope2_Seg04
Rope2_Seg06 Rope2_Seg05
Rope2_Seg07 Rope2_Seg06
Rope2_Seg09 Rope2_Seg07
R_mid_hand01 Rope2_Seg09
R_mid_hand02 Rope2_Seg09
R_mid_hand03 Rope2_Seg09
spine02 spine01
spine03 spine02
pelvis spine03
null_rope03_connect pelvis
null_rope04_connect pelvis
Rope3_Seg01 null_rope03_connect
Rope3_Seg02 Rope3_Seg01
Rope3_Seg03 Rope3_Seg02
Rope3_Seg04 Rope3_Seg03
Rope3_Seg05 Rope3_Seg04
Rope3_Seg06 Rope3_Seg05
Rope3_Seg07 Rope3_Seg06
Rope3_Seg08 Rope3_Seg07
Rope3_Seg09 Rope3_Seg08
R_rear_hand01 Rope3_Seg09
R_rear_hand02 Rope3_Seg09
R_rear_hand03 Rope3_Seg09
Rope4_Seg01 null_rope04_connect
Rope4_Seg02 Rope4_Seg01
Rope4_Seg03 Rope4_Seg02
Rope4_Seg04 Rope4_Seg03
Rope4_Seg05 Rope4_Seg04
Rope4_Seg06 Rope4_Seg05
Rope4_Seg07 Rope4_Seg06
Rope4_Seg08 Rope4_Seg07
Rope4_Seg09 Rope4_Seg08
L_rear_hand01 Rope4_Seg09
L_rear_hand02 Rope4_Seg09
L_rear_hand03 Rope4_Seg09
[BasePosition]
#SegmentName Tx, Ty, Tz, Rx, Ry, Rz, BoneLength
MASTER 0.000000 0.000000 0.000000 -90.000000 0.000000 0.000000 10.000000 
root 0.000000 0.000000 0.000000 0.000000 0.000000 0.000000 10.000000 
chest 0.000000 0.000000 0.000000 0.000000 0.000000 0.000000 10.000000 
L_mid_tent01 0.000000 0.000000 0.000000 0.000000 0.000000 0.000000 10.000000 
R_mid_tent01 0.000000 0.000000 0.000000 0.000000 0.000000 0.000000 10.000000 
spine01 0.000000 0.000000 0.000000 0.000000 0.000000 0.000000 10.000000 
Bip01_Neck 0.000000 0.000000 0.000000 0.000000 0.000000 0.000000 10.000000 
L_humerus 0.000000 0.000000 0.000000 0.000000 0.000000 0.000000 10.000000 
R_humerus 0.000000 0.000000 0.000000 0.000000 0.000000 0.000000 10.000000 
weapon_bone 0.000000 0.000000 0.000000 0.000000 0.000000 0.000000 10.000000 
Bip01_Head 0.000000 0.000000 0.000000 0.000000 0.000000 0.000000 10.000000 
eye_left_bone 0.000000 0.000000 0.000000 0.000000 0.000000 0.000000 10.000000 
eye_right_bone 0.000000 0.000000 0.000000 0.000000 0.000000 0.000000 10.000000 
L_forearm 0.000000 0.000000 0.000000 0.000000 0.000000 0.000000 10.000000 
L_front_hand 0.000000 0.000000 0.000000 0.000000 0.000000 0.000000 10.000000 
L_weapon_bone 0.000000 0.000000 0.000000 0.000000 0.000000 0.000000 10.000000 
L_front_hand01_01 0.000000 0.000000 0.000000 0.000000 0.000000 0.000000 10.000000 
L_front_hand02_01 0.000000 0.000000 0.000000 0.000000 0.000000 0.000000 10.000000 
L_front_hand03_01 0.000000 0.000000 0.000000 0.000000 0.000000 0.000000 10.000000 
L_front_hand01_02 0.000000 0.000000 0.000000 0.000000 0.000000 0.000000 10.000000 
L_front_hand02_02 0.000000 0.000000 0.000000 0.000000 0.000000 0.000000 10.000000 
L_front_hand03_02 0.000000 0.000000 0.000000 0.000000 0.000000 0.000000 10.000000 
R_forearm 0.000000 0.000000 0.000000 0.000000 0.000000 0.000000 10.000000 
R_front_hand 0.000000 0.000000 0.000000 0.000000 0.000000 0.000000 10.000000 
R_weapon_bone 0.000000 0.000000 0.000000 0.000000 0.000000 0.000000 10.000000 
R_front_hand01_01 0.000000 0.000000 0.000000 0.000000 0.000000 0.000000 10.000000 
R_front_hand02_01 0.000000 0.000000 0.000000 0.000000 0.000000 0.000000 10.000000 
R_front_hand03_01 0.000000 0.000000 0.000000 0.000000 0.000000 0.000000 10.000000 
R_front_hand01_02 0.000000 0.000000 0.000000 0.000000 0.000000 0.000000 10.000000 
R_front_hand02_02 0.000000 0.000000 0.000000 0.000000 0.000000 0.000000 10.000000 
R_front_hand03_02 0.000000 0.000000 0.000000 0.000000 0.000000 0.000000 10.000000 
null_rope01_connect 0.000000 0.000000 0.000000 0.000000 0.000000 0.000000 10.000000 
Rope1_Seg01 0.000000 0.000000 0.000000 0.000000 0.000000 0.000000 10.000000 
Rope1_Seg02 0.000000 0.000000 0.000000 0.000000 0.000000 0.000000 10.000000 
Rope1_Seg03 0.000000 0.000000 0.000000 0.000000 0.000000 0.000000 10.000000 
Rope1_Seg04 0.000000 0.000000 0.000000 0.000000 0.000000 0.000000 10.000000 
Rope1_Seg05 0.000000 0.000000 0.000000 0.000000 0.000000 0.000000 10.000000 
Rope1_Seg06 0.000000 0.000000 0.000000 0.000000 0.000000 0.000000 10.000000 
Rope1_Seg07 0.000000 0.000000 0.000000 0.000000 0.000000 0.000000 10.000000 
Rope1_Seg09 0.000000 0.000000 0.000000 0.000000 0.000000 0.000000 10.000000 
L_mid_hand01 0.000000 0.000000 0.000000 0.000000 0.000000 0.000000 10.000000 
L_mid_hand02 0.000000 0.000000 0.000000 0.000000 0.000000 0.000000 10.000000 
L_mid_hand03 0.000000 0.000000 0.000000 0.000000 0.000000 0.000000 10.000000 
null_rope02_connect 0.000000 0.000000 0.000000 0.000000 0.000000 0.000000 10.000000 
Rope2_Seg01 0.000000 0.000000 0.000000 0.000000 0.000000 0.000000 10.000000 
Rope2_Seg02 0.000000 0.000000 0.000000 0.000000 0.000000 0.000000 10.000000 
Rope2_Seg03 0.000000 0.000000 0.000000 0.000000 0.000000 0.000000 10.000000 
Rope2_Seg04 0.000000 0.000000 0.000000 0.000000 0.000000 0.000000 10.000000 
Rope2_Seg05 0.000000 0.000000 0.000000 0.000000 0.000000 0.000000 10.000000 
Rope2_Seg06 0.000000 0.000000 0.000000 0.000000 0.000000 0.000000 10.000000 
Rope2_Seg07 0.000000 0.000000 0.000000 0.000000 0.000000 0.000000 10.000000 
Rope2_Seg09 0.000000 0.000000 0.000000 0.000000 0.000000 0.000000 10.000000 
R_mid_hand01 0.000000 0.000000 0.000000 0.000000 0.000000 0.000000 10.000000 
R_mid_hand02 0.000000 0.000000 0.000000 0.000000 0.000000 0.000000 10.000000 
R_mid_hand03 0.000000 0.000000 0.000000 0.000000 0.000000 0.000000 10.000000 
spine02 0.000000 0.000000 0.000000 0.000000 0.000000 0.000000 10.000000 
spine03 0.000000 0.000000 0.000000 0.000000 0.000000 0.000000 10.000000 
pelvis 0.000000 0.000000 0.000000 0.000000 0.000000 0.000000 10.000000 
null_rope03_connect 0.000000 0.000000 0.000000 0.000000 0.000000 0.000000 10.000000 
null_rope04_connect 0.000000 0.000000 0.000000 0.000000 0.000000 0.000000 10.000000 
Rope3_Seg01 0.000000 0.000000 0.000000 0.000000 0.000000 0.000000 10.000000 
Rope3_Seg02 0.000000 0.000000 0.000000 0.000000 0.000000 0.000000 10.000000 
Rope3_Seg03 0.000000 0.000000 0.000000 0.000000 0.000000 0.000000 10.000000 
Rope3_Seg04 0.000000 0.000000 0.000000 0.000000 0.000000 0.000000 10.000000 
Rope3_Seg05 0.000000 0.000000 0.000000 0.000000 0.000000 0.000000 10.000000 
Rope3_Seg06 0.000000 0.000000 0.000000 0.000000 0.000000 0.000000 10.000000 
Rope3_Seg07 0.000000 0.000000 0.000000 0.000000 0.000000 0.000000 10.000000 
Rope3_Seg08 0.000000 0.000000 0.000000 0.000000 0.000000 0.000000 10.000000 
Rope3_Seg09 0.000000 0.000000 0.000000 0.000000 0.000000 0.000000 10.000000 
R_rear_hand01 0.000000 0.000000 0.000000 0.000000 0.000000 0.000000 10.000000 
R_rear_hand02 0.000000 0.000000 0.000000 0.000000 0.000000 0.000000 10.000000 
R_rear_hand03 0.000000 0.000000 0.000000 0.000000 0.000000 0.000000 10.000000 
Rope4_Seg01 0.000000 0.000000 0.000000 0.000000 0.000000 0.000000 10.000000 
Rope4_Seg02 0.000000 0.000000 0.000000 0.000000 0.000000 0.000000 10.000000 
Rope4_Seg03 0.000000 0.000000 0.000000 0.000000 0.000000 0.000000 10.000000 
Rope4_Seg04 0.000000 0.000000 0.000000 0.000000 0.000000 0.000000 10.000000 
Rope4_Seg05 0.000000 0.000000 0.000000 0.000000 0.000000 0.000000 10.000000 
Rope4_Seg06 0.000000 0.000000 0.000000 0.000000 0.000000 0.000000 10.000000 
Rope4_Seg07 0.000000 0.000000 0.000000 0.000000 0.000000 0.000000 10.000000 
Rope4_Seg08 0.000000 0.000000 0.000000 0.000000 0.000000 0.000000 10.000000 
Rope4_Seg09 0.000000 0.000000 0.000000 0.000000 0.000000 0.000000 10.000000 
L_rear_hand01 0.000000 0.000000 0.000000 0.000000 0.000000 0.000000 10.000000 
L_rear_hand02 0.000000 0.000000 0.000000 0.000000 0.000000 0.000000 10.000000 
L_rear_hand03 0.000000 0.000000 0.000000 0.000000 0.000000 0.000000 10.000000 
#Beginning of Data. Separated by tabs
#Fr	Tx	Ty	Tz	Rx	Ry	Rz	SF
[MASTER]
33 2004.075562 5193.408691 516.386475 0.001660 0.001660 0.001660 5590.569336
34 1774.328857 5440.517090 444.664154 0.001660 0.001660 0.001660 5739.790527
[root]
33 -7.992070 -85.182190 1004.314636 -109.816780 -16.158478 -77.151466 1007.952332
34 -10.697916 -83.728027 1005.304199 -102.779556 -18.005358 -77.860222 1008.841614
[chest]
33 -84.512650 -34.090519 0.000000 -32.017910 -7.994849 176.770508 91.129311
34 -84.512650 -34.090519 0.000000 -26.686541 -7.000252 178.691711 91.129311
[L_mid_tent01]
33 27.298733 22.179258 -249.918701 -4.784697 4.277325 -21.692295 252.381653
34 27.298723 22.179258 -249.918701 -4.865170 2.112538 -20.685991 252.381653
[R_mid_tent01]
33 23.228794 24.509907 226.238495 163.540512 -25.254183 75.204369 228.744751
34 23.228794 24.509907 226.238495 163.714355 -22.402590 75.820770 228.744751
[spine01]
33 -0.361383 -0.195265 0.000000 0.001951 0.001305 22.437248 0.410763
34 -0.361383 -0.195265 0.000000 0.001950 0.001306 22.397371 0.410763
[Bip01_Neck]
33 165.484543 71.581718 0.000119 176.643677 -1.657967 43.431911 180.302734
34 165.484543 71.581718 0.000119 176.643677 -1.657967 43.431911 180.302734
[L_humerus]
33 -13.983130 -135.272980 -120.471481 148.938202 31.922115 -123.570511 181.680161
34 -13.983130 -135.272980 -120.471481 132.078598 40.631783 -142.154114 181.680161
[R_humerus]
33 -13.983309 -135.273102 125.287651 -176.002991 -29.857151 -87.907455 184.909012
34 -13.983309 -135.273102 125.287651 -175.033783 -43.732578 -89.337212 184.909012
[weapon_bone]
33 235.964890 -300.705902 0.000000 0.000000 -89.951546 -128.212341 382.234833
34 235.964890 -300.705902 0.000000 0.000000 -89.951546 -128.212341 382.234833
[Bip01_Head]
33 213.414047 185.800690 10.676747 37.440536 6.148842 -43.830997 283.163300
34 213.420227 185.783585 10.897281 39.668934 6.148935 -43.832561 283.165100
[eye_left_bone]
33 -24.626970 125.451866 -64.772606 0.000000 -90.000000 -99.840431 143.318359
34 -24.626970 125.451866 -64.772606 0.000000 -90.000000 -99.840431 143.318359
[eye_right_bone]
33 -24.626970 125.451866 64.327362 0.000000 -89.965736 80.156380 143.117676
34 -24.626970 125.451866 64.327362 0.000000 -89.965736 80.156380 143.117676
[L_forearm]
33 322.776093 0.000000 -0.000119 0.000412 -0.002311 -110.218407 322.776093
34 322.776093 0.000000 -0.000119 0.000410 -0.002311 -110.132263 322.776093
[L_front_hand]
33 241.149185 -0.042021 -3.300071 -178.667953 -1.835447 -27.422350 241.171753
34 241.149185 -0.042021 -3.300071 -178.667953 -1.835447 -27.422342 241.171753
[L_weapon_bone]
33 156.183838 0.000000 0.000000 0.000014 0.000007 0.000001 156.183838
34 156.183838 0.000000 0.000000 0.000014 0.000007 0.000001 156.183838
[L_front_hand01_01]
33 86.095154 20.947098 -0.655860 -0.366594 -0.477154 75.385574 88.609184
34 86.095154 20.947098 -0.655860 -0.366594 -0.477154 75.385574 88.609184
[L_front_hand02_01]
33 86.935165 -11.437475 24.513514 154.399796 -59.883835 -61.369587 91.046425
34 86.935165 -11.437475 24.513514 154.399796 -59.883835 -61.369587 91.046425
[L_front_hand03_01]
33 86.637497 -14.123976 -20.424902 -153.913849 58.118122 -62.702866 90.126129
34 86.637497 -14.123976 -20.424902 -153.913849 58.118122 -62.702866 90.126129
[L_front_hand01_02]
33 71.020905 -0.000179 0.000030 0.000334 -0.002323 -106.372131 71.020905
34 71.020905 -0.000179 0.000030 0.000334 -0.002323 -106.372841 71.020905
[L_front_hand02_02]
33 71.020927 -0.000119 0.000060 0.000334 -0.002323 -106.372131 71.020927
34 71.020927 -0.000119 0.000060 0.000334 -0.002323 -106.372841 71.020927
[L_front_hand03_02]
33 71.020905 -0.000060 0.000060 0.000334 -0.002323 -106.372131 71.020905
34 71.020905 -0.000060 0.000060 0.000334 -0.002323 -106.372841 71.020905
[R_forearm]
33 322.776428 -0.000060 0.000030 0.201641 0.066577 -108.868050 322.776428
34 322.776428 -0.000060 0.000030 0.201691 0.066424 -108.781143 322.776428
[R_front_hand]
33 238.847015 -0.006795 2.210259 -2.635298 -10.645461 -26.312506 238.857239
34 238.847015 -0.006795 2.210259 -2.635298 -10.645461 -26.312506 238.857239
[R_weapon_bone]
33 155.664093 0.002503 -0.000030 0.003487 0.001180 -90.988930 155.664078
34 155.664093 0.002503 -0.000030 0.003487 0.001180 -90.988930 155.664078
[R_front_hand01_01]
33 87.624611 14.231146 22.918642 -154.633499 -59.950626 61.746044 91.683487
34 87.624611 14.231146 22.918642 -154.633499 -59.950619 61.746044 91.683487
[R_front_hand02_01]
33 89.356956 14.367283 -19.491137 154.602676 58.302864 63.744389 92.579636
34 89.356956 14.367283 -19.491137 154.602661 58.302849 63.744389 92.579636
[R_front_hand03_01]
33 87.286232 -22.307278 -0.143439 0.162155 -0.423168 -75.767921 90.091743
34 87.286232 -22.307278 -0.143439 0.162155 -0.423168 -75.767921 90.091743
[R_front_hand01_02]
33 71.020905 0.000060 0.000119 0.002323 -0.000334 106.381714 71.020905
34 71.020905 0.000060 0.000119 0.002323 -0.000334 106.381714 71.020905
[R_front_hand02_02]
33 71.020844 -0.000030 -0.000119 0.002323 -0.000334 106.381714 71.020836
34 71.020844 -0.000030 -0.000119 0.002323 -0.000334 106.381714 71.020836
[R_front_hand03_02]
33 71.020905 0.000000 0.000030 0.002323 -0.000334 106.381714 71.020905
34 71.020905 0.000000 0.000030 0.002323 -0.000334 106.381714 71.020905
[null_rope01_connect]
33 328.732483 0.000000 -0.000238 178.925766 -70.055748 -47.979977 328.732483
34 328.732483 0.000000 -0.000238 167.600693 -75.094765 -37.025047 328.732483
[Rope1_Seg01]
33 0.000000 0.000000 0.000000 119.990677 -20.166931 -49.800392 0.000000
34 0.000000 0.000000 0.000000 120.930908 -19.702898 -56.148853 0.000000
[Rope1_Seg02]
33 139.999863 -0.000179 0.000000 -1.240355 -2.459224 -1.139259 139.999863
34 139.999863 -0.000179 0.000000 -1.115379 -1.195200 -1.505225 139.999863
[Rope1_Seg03]
33 139.999924 0.000060 -0.000060 -1.335965 -2.915200 -0.706476 139.999924
34 139.999924 0.000060 -0.000060 -0.676574 -1.526369 0.045293 139.999924
[Rope1_Seg04]
33 139.999924 -0.000060 -0.000119 -2.433327 -7.196445 2.618212 139.999924
34 139.999924 -0.000060 -0.000119 0.609272 -2.950118 4.860610 139.999924
[Rope1_Seg05]
33 139.999832 0.000119 -0.000060 -0.689283 4.438112 -6.185220 139.999832
34 139.999832 0.000119 -0.000060 -4.065956 2.281185 -12.303650 139.999832
[Rope1_Seg06]
33 139.999954 0.000119 -0.000060 -0.229530 10.491955 -9.227221 139.999954
34 139.999954 0.000119 -0.000060 -3.298342 5.758099 -18.286987 139.999954
[Rope1_Seg07]
33 139.999985 0.000060 0.000000 -0.058134 4.236680 -4.024893 139.999985
34 139.999985 0.000060 0.000000 -0.442356 2.644092 -7.627625 139.999985
[Rope1_Seg09]
33 121.602913 0.000119 -0.000089 -89.793175 -1.359789 0.847147 121.602913
34 121.602913 0.000119 -0.000089 -89.793175 -1.359789 0.847147 121.602913
[L_mid_hand01]
33 103.859421 1.038730 8.195221 130.544373 -67.584534 -38.866943 104.187431
34 103.859421 1.038730 8.195221 130.544373 -67.584534 -38.866943 104.187431
[L_mid_hand02]
33 105.572853 -4.139662 -10.864139 -168.923172 43.409309 -73.498886 106.211075
34 105.572853 -4.139662 -10.864139 -168.923172 43.409309 -73.498886 106.211075
[L_mid_hand03]
33 104.641464 17.579376 -3.913581 -6.012627 17.808174 74.893669 106.179977
34 104.641464 17.579376 -3.913581 -6.012627 17.808174 74.893669 106.179977
[null_rope02_connect]
33 328.732849 0.000179 -0.000119 -80.343956 55.179386 68.268593 328.732849
34 328.732849 0.000179 -0.000119 -86.572815 56.126026 60.196205 328.732849
[Rope2_Seg01]
33 0.000065 0.000046 0.000000 13.572617 40.078472 -52.278263 0.000080
34 0.000066 0.000043 0.000000 11.416398 13.475248 -49.924530 0.000078
[Rope2_Seg02]
33 139.999741 -0.000060 -0.000119 -0.925124 -3.890006 0.186573 139.999756
34 139.999741 -0.000060 -0.000119 -2.465380 5.924267 -4.664431 139.999756
[Rope2_Seg03]
33 140.000107 0.000030 0.000000 -1.344793 -0.511564 -1.995484 140.000107
34 140.000107 0.000030 0.000000 -2.241904 5.992188 -4.976410 140.000107
[Rope2_Seg04]
33 139.999802 0.000000 -0.000060 0.636605 -3.148847 2.468395 139.999802
34 139.999802 0.000000 -0.000060 -0.879897 3.967961 -2.869681 139.999802
[Rope2_Seg05]
33 139.999985 -0.000060 0.000119 4.016132 -7.880072 8.628076 139.999985
34 139.999985 -0.000060 0.000119 2.148347 -1.946858 3.869345 139.999985
[Rope2_Seg06]
33 139.999893 -0.000030 -0.000119 6.872352 -6.971787 8.655787 139.999893
34 139.999893 -0.000030 -0.000119 4.720630 -3.967933 7.237810 139.999893
[Rope2_Seg07]
33 139.999893 0.000060 -0.000060 10.780354 -5.066822 8.143671 139.999893
34 139.999893 0.000060 -0.000060 5.774225 -2.331547 6.425586 139.999893
[Rope2_Seg09]
33 121.338966 0.000089 -0.000060 33.793236 -1.359788 -0.847141 121.338966
34 121.338966 0.000089 -0.000060 33.793236 -1.359788 -0.847141 121.338966
[R_mid_hand01]
33 104.680779 11.144459 -10.335981 -16.212055 45.237240 70.462852 105.778534
34 104.680779 11.144459 -10.335981 -16.212063 45.237247 70.462852 105.778534
[R_mid_hand02]
33 104.070427 2.443552 8.231699 49.067368 -67.749779 39.286465 104.424065
34 104.070427 2.443552 8.231699 49.067368 -67.749771 39.286453 104.424065
[R_mid_hand03]
33 106.028137 -11.221827 -5.996406 -177.101105 15.551026 -76.585571 106.788818
34 106.028137 -11.221827 -5.996406 -177.101105 15.551026 -76.585571 106.788818
[spine02]
33 129.756927 0.001550 0.000119 0.437781 -4.036438 -14.063299 129.756927
34 129.756927 0.001550 0.000119 0.429117 -4.037427 -13.936909 129.756927
[spine03]
33 78.614006 0.081738 -4.898995 1.943942 3.808267 17.194687 78.766541
34 78.614006 0.081738 -4.898994 1.939005 3.810562 17.116982 78.766541
[pelvis]
33 169.435242 0.051022 0.000000 -52.493576 1.960497 -6.360394 169.435257
34 169.435242 0.051022 0.000000 -49.913486 2.445736 -5.060172 169.435257
[null_rope03_connect]
33 -1.257226 -2.466202 137.391083 176.985184 -19.443726 -85.092262 137.418976
34 -1.257226 -2.466202 137.391083 175.477509 -28.748898 -83.884201 137.418976
[null_rope04_connect]
33 -1.259640 -2.480268 -137.844437 176.985184 -19.443726 -85.092262 137.872513
34 -1.259640 -2.480268 -137.844437 175.477509 -28.748898 -83.884201 137.872513
[Rope3_Seg01]
33 0.000000 0.000000 0.000000 17.885283 -20.098873 -77.533470 0.000000
34 0.000000 0.000000 0.000000 16.875441 -11.423265 -75.414108 0.000000
[Rope3_Seg02]
33 139.999924 -0.000119 0.000060 -0.028455 4.489571 1.757676 139.999924
34 139.999924 -0.000119 0.000060 0.106531 2.023010 2.016854 139.999924
[Rope3_Seg03]
33 139.999924 -0.000119 0.000119 0.158635 4.610506 1.686041 139.999924
34 139.999924 -0.000119 0.000119 0.149620 2.313988 2.181360 139.999924
[Rope3_Seg04]
33 139.999924 0.000119 0.000000 0.432413 6.052651 1.589582 139.999924
34 139.999924 0.000119 0.000000 0.252124 3.557823 2.963814 139.999924
[Rope3_Seg05]
33 139.999924 -0.000238 0.000060 0.165597 1.137059 1.566292 139.999924
34 139.999924 -0.000238 0.000060 -0.009552 -0.977568 0.155075 139.999924
[Rope3_Seg06]
33 139.999893 -0.000119 -0.000060 -0.065950 -2.708241 1.185670 139.999893
34 139.999893 -0.000119 -0.000060 0.223087 -2.889492 -1.324900 139.999893
[Rope3_Seg07]
33 139.999771 0.000060 -0.000119 0.295868 -0.999586 0.859743 139.999771
34 139.999771 0.000060 -0.000119 0.440156 -1.085097 -0.343767 139.999771
[Rope3_Seg08]
33 139.999985 -0.000060 0.000000 0.419677 -0.470274 0.578649 139.999985
34 139.999985 -0.000060 0.000000 0.497310 -0.650358 -0.189101 139.999985
[Rope3_Seg09]
33 90.185997 -0.000179 -0.000060 89.793228 -1.359877 -0.847183 90.185997
34 90.185997 -0.000179 -0.000060 89.793228 -1.359877 -0.847183 90.185997
[R_rear_hand01]
33 103.366196 -6.073594 -10.757982 -177.714203 24.565960 -73.910950 104.101845
34 103.366196 -6.073594 -10.757982 -177.714203 24.565960 -73.910950 104.101845
[R_rear_hand02]
33 100.509819 12.039542 -7.992327 -12.874829 36.868488 72.167213 101.543350
34 100.509819 12.039542 -7.992327 -12.874829 36.868488 72.167213 101.543350
[R_rear_hand03]
33 101.539970 5.215704 5.435467 71.484581 -71.816643 21.513824 101.819031
34 101.539970 5.215704 5.435467 71.484581 -71.816628 21.513813 101.819031
[Rope4_Seg01]
33 0.000010 0.000012 -0.000046 -85.014473 -28.926056 -132.319046 0.000049
34 0.000010 0.000011 -0.000043 -93.392410 -29.995323 -117.137131 0.000045
[Rope4_Seg02]
33 139.999985 0.000060 0.000119 2.510242 -46.176964 -1.961250 139.999985
34 139.999985 0.000060 0.000119 5.118099 -47.249359 7.161874 139.999985
[Rope4_Seg03]
33 139.999924 0.000000 -0.000238 45.669281 -53.277992 -0.631933 139.999924
34 139.999924 0.000000 -0.000238 26.525373 -32.296280 10.500187 139.999924
[Rope4_Seg04]
33 139.999985 0.000000 0.000119 -10.109797 5.778389 -3.000769 139.999985
34 139.999985 0.000000 0.000119 -11.538411 0.724369 -7.827127 139.999985
[Rope4_Seg05]
33 139.999802 -0.000060 -0.000119 -4.512676 3.289313 -1.370881 139.999802
34 139.999802 -0.000060 -0.000119 -9.063198 2.786911 -5.213240 139.999802
[Rope4_Seg06]
33 139.999924 0.000000 0.000060 -0.384226 0.644523 -0.030160 139.999924
34 139.999924 0.000000 0.000060 -2.280959 0.566067 -1.468921 139.999924
[Rope4_Seg07]
33 139.999802 0.000000 0.000000 -0.181380 0.426974 -0.018785 139.999802
34 139.999802 0.000000 0.000000 -1.495693 0.424035 -0.988160 139.999802
[Rope4_Seg08]
33 139.999924 0.000000 0.000119 -1.645335 0.263645 -0.012010 139.999924
34 139.999924 0.000000 0.000119 -2.467952 0.280430 -0.607892 139.999924
[Rope4_Seg09]
33 90.185791 0.000060 0.000060 -135.617828 2.228885 0.850567 90.185791
34 90.185791 0.000060 0.000060 -135.617828 2.228885 0.850567 90.185791
[L_rear_hand01]
33 101.696655 -8.392275 -7.654577 -12.874829 -36.868488 107.832764 102.329041
34 101.696655 -8.392275 -7.654577 -12.874829 -36.868488 107.832764 102.329041
[L_rear_hand02]
33 102.726799 -1.568258 5.773216 71.484581 71.816628 158.486160 102.900848
34 102.726799 -1.568258 5.773216 71.484619 71.816643 158.486160 102.900848
[L_rear_hand03]
33 104.552910 9.721220 -10.420293 -177.714203 -24.565960 -106.089035 105.519653
34 104.552910 9.721220 -10.420293 -177.714203 -24.565960 -106.089035 105.519653
